<svg width="14" height="14" viewBox="0 0 14 14" fill="none" xmlns="http://www.w3.org/2000/svg">
<path d="M1.33683 1.97313L4.99965 12.5546C5.03414 12.6542 5.09925 12.7404 5.18567 12.8008C5.27209 12.8612 5.3754 12.8928 5.48082 12.891C5.58625 12.8891 5.6884 12.854 5.77267 12.7906C5.85694 12.7273 5.91902 12.6389 5.95003 12.5381L7.42225 7.75335C7.44624 7.6754 7.48892 7.6045 7.54659 7.54684C7.60426 7.48917 7.67515 7.44648 7.7531 7.4225L12.5378 5.95028C12.6386 5.91927 12.727 5.85719 12.7904 5.77292C12.8538 5.68865 12.8889 5.5865 12.8907 5.48107C12.8925 5.37564 12.861 5.27234 12.8006 5.18592C12.7402 5.09949 12.654 5.03438 12.5543 4.99989L1.97288 1.33708C1.88421 1.30638 1.78869 1.30126 1.69725 1.32229C1.6058 1.34333 1.52212 1.38967 1.45577 1.45602C1.38942 1.52237 1.34308 1.60605 1.32205 1.69749C1.30102 1.78894 1.30614 1.88446 1.33683 1.97313V1.97313Z" stroke="#6E9BB8" stroke-linecap="round" stroke-linejoin="round"/>
</svg>
