<svg width="23" height="23" viewBox="0 0 23 23" fill="none" xmlns="http://www.w3.org/2000/svg">
<path d="M7.90628 12.1182L15.9848 19.2273C16.0783 19.3095 16.1915 19.3661 16.3134 19.3914C16.4353 19.4167 16.5617 19.41 16.6802 19.3718C16.7987 19.3335 16.9052 19.2652 16.9894 19.1734C17.0735 19.0817 17.1324 18.9696 17.1602 18.8482L20.5396 4.10196C20.5688 3.97446 20.5626 3.84141 20.5218 3.71714C20.481 3.59287 20.4071 3.48209 20.3079 3.39674C20.2088 3.31139 20.0883 3.25471 19.9593 3.23281C19.8304 3.2109 19.6979 3.2246 19.5762 3.27243L2.99488 9.7865C2.85037 9.84327 2.72813 9.94531 2.64645 10.0774C2.56476 10.2094 2.52803 10.3643 2.54175 10.519C2.55547 10.6736 2.6189 10.8197 2.72255 10.9353C2.82619 11.0509 2.96449 11.1298 3.11673 11.1603L7.90628 12.1182Z" stroke="black" stroke-linecap="round" stroke-linejoin="round"/>
<path d="M7.90625 12.1171L20.1351 3.28516" stroke="black" stroke-linecap="round" stroke-linejoin="round"/>
<path d="M11.9409 15.6677L9.13323 18.4753C9.03271 18.5758 8.90465 18.6443 8.76522 18.672C8.6258 18.6997 8.48128 18.6855 8.34995 18.6311C8.21861 18.5767 8.10636 18.4846 8.02738 18.3664C7.94841 18.2482 7.90625 18.1092 7.90625 17.9671V12.1172" stroke="black" stroke-linecap="round" stroke-linejoin="round"/>
</svg>
