<svg width="23" height="23" viewBox="0 0 23 23" fill="none" xmlns="http://www.w3.org/2000/svg">
<path d="M4.08149 15.9028C3.00989 14.0963 2.63461 11.9608 3.02611 9.89722C3.41761 7.83365 4.54897 5.98397 6.20774 4.69552C7.8665 3.40707 9.93857 2.76847 12.0349 2.89965C14.1311 3.03083 16.1074 3.92276 17.5926 5.40795C19.0778 6.89314 19.9698 8.86943 20.101 10.9657C20.2321 13.062 19.5936 15.1341 18.3051 16.7928C17.0167 18.4516 15.167 19.583 13.1034 19.9745C11.0399 20.366 8.90435 19.9907 7.09789 18.9191L7.09791 18.9191L4.119 19.7702C3.99575 19.8054 3.86533 19.807 3.74125 19.7749C3.61716 19.7427 3.50394 19.678 3.4133 19.5873C3.32267 19.4967 3.25792 19.3835 3.22576 19.2594C3.19361 19.1353 3.19523 19.0049 3.23044 18.8816L4.08156 15.9027L4.08149 15.9028Z" stroke="black" stroke-linecap="round" stroke-linejoin="round"/>
<path d="M13.6665 16.5312C12.7209 16.5326 11.7843 16.3473 10.9104 15.9861C10.0366 15.6248 9.24256 15.0947 8.57392 14.4261C7.90528 13.7574 7.37516 12.9634 7.01391 12.0896C6.65267 11.2157 6.46741 10.2791 6.46876 9.33354C6.4709 8.66795 6.73695 8.03039 7.20855 7.5607C7.68014 7.09101 8.31879 6.82756 8.98438 6.82813V6.82813C9.09355 6.82813 9.20078 6.85699 9.2952 6.91178C9.38962 6.96658 9.46788 7.04536 9.52205 7.14015L10.5724 8.97829C10.6358 9.08914 10.6684 9.21487 10.6671 9.34253C10.6657 9.4702 10.6304 9.5952 10.5647 9.70468L9.72114 11.1106C10.1551 12.0737 10.9263 12.8449 11.8894 13.2789V13.2789L13.2953 12.4353C13.4048 12.3696 13.5298 12.3343 13.6575 12.3329C13.7851 12.3316 13.9109 12.3642 14.0217 12.4276L15.8599 13.478C15.9546 13.5321 16.0334 13.6104 16.0882 13.7048C16.143 13.7992 16.1719 13.9065 16.1719 14.0156V14.0156C16.17 14.6805 15.9057 15.3177 15.4366 15.7887C14.9674 16.2598 14.3313 16.5266 13.6665 16.5312V16.5312Z" stroke="black" stroke-linecap="round" stroke-linejoin="round"/>
</svg>
