<svg width="23" height="23" viewBox="0 0 23 23" fill="none" xmlns="http://www.w3.org/2000/svg">
<path d="M4.3125 17.9688C4.3125 17.9688 7.90625 17.25 8.625 15.0938C8.625 15.0938 2.875 12.9375 4.3125 5.03125C4.3125 5.03125 7.1875 8.625 11.5 9.34375V7.90651C11.5001 7.08081 11.7844 6.28031 12.3053 5.6396C12.8261 4.99889 13.5517 4.55704 14.3599 4.38833C15.1682 4.21962 16.0099 4.33435 16.7436 4.71321C17.4772 5.09208 18.0581 5.71199 18.3884 6.46872L21.5625 6.46875L18.6875 9.34375C18.6875 14.375 15.0937 19.4063 8.625 19.4063C5.75 19.4063 4.3125 17.9688 4.3125 17.9688Z" stroke="black" stroke-linecap="round" stroke-linejoin="round"/>
</svg>
