<svg width="23" height="23" viewBox="0 0 23 23" fill="none" xmlns="http://www.w3.org/2000/svg">
<path d="M14.375 11.5L10.0625 8.625V14.375L14.375 11.5Z" stroke="black" stroke-linecap="round" stroke-linejoin="round"/>
<path d="M2.15625 11.5006C2.15625 14.1739 2.43244 15.7424 2.6424 16.5486C2.69853 16.7688 2.8063 16.9724 2.95681 17.1426C3.10731 17.3128 3.29621 17.4447 3.50785 17.5274C6.51554 18.6832 11.5 18.6515 11.5 18.6515C11.5 18.6515 16.4844 18.6832 19.4921 17.5274C19.7038 17.4447 19.8927 17.3128 20.0432 17.1426C20.1937 16.9724 20.3015 16.7688 20.3576 16.5486C20.5675 15.7425 20.8438 14.1739 20.8438 11.5006C20.8438 8.82723 20.5676 7.25872 20.3576 6.45257C20.3015 6.2324 20.1937 6.02877 20.0432 5.85855C19.8927 5.68834 19.7038 5.55644 19.4921 5.47378C16.4845 4.31796 11.5 4.3497 11.5 4.3497C11.5 4.3497 6.5156 4.31796 3.50788 5.47376C3.29624 5.55642 3.10734 5.68833 2.95683 5.85854C2.80633 6.02875 2.69855 6.23238 2.64242 6.45255C2.43245 7.2587 2.15625 8.82723 2.15625 11.5006Z" stroke="black" stroke-linecap="round" stroke-linejoin="round"/>
</svg>
